<svg width="120" height="120" viewBox="0 0 120 120" xmlns="http://www.w3.org/2000/svg">
  <!-- Outer red ring with circuit pattern -->
  <circle cx="60" cy="60" r="58" fill="#DC2626" stroke="#B91C1C" stroke-width="2"/>
  
  <!-- Circuit board pattern -->
  <g fill="#FCD34D" stroke="#FCD34D" stroke-width="1">
    <!-- Horizontal lines -->
    <line x1="20" y1="25" x2="40" y2="25"/>
    <line x1="80" y1="25" x2="100" y2="25"/>
    <line x1="15" y1="35" x2="35" y2="35"/>
    <line x1="85" y1="35" x2="105" y2="35"/>
    <line x1="25" y1="85" x2="45" y2="85"/>
    <line x1="75" y1="85" x2="95" y2="85"/>
    <line x1="20" y1="95" x2="40" y2="95"/>
    <line x1="80" y1="95" x2="100" y2="95"/>
    
    <!-- Vertical lines -->
    <line x1="25" y1="20" x2="25" y2="40"/>
    <line x1="35" y1="15" x2="35" y2="35"/>
    <line x1="85" y1="20" x2="85" y2="40"/>
    <line x1="95" y1="15" x2="95" y2="35"/>
    <line x1="25" y1="80" x2="25" y2="100"/>
    <line x1="35" y1="85" x2="35" y2="105"/>
    <line x1="85" y1="80" x2="85" y2="100"/>
    <line x1="95" y1="85" x2="95" y2="105"/>
    
    <!-- Connection points -->
    <circle cx="25" cy="25" r="2"/>
    <circle cx="35" cy="25" r="2"/>
    <circle cx="85" cy="25" r="2"/>
    <circle cx="95" cy="25" r="2"/>
    <circle cx="25" cy="35" r="2"/>
    <circle cx="35" cy="35" r="2"/>
    <circle cx="85" cy="35" r="2"/>
    <circle cx="95" cy="35" r="2"/>
    <circle cx="25" cy="85" r="2"/>
    <circle cx="35" cy="85" r="2"/>
    <circle cx="85" cy="85" r="2"/>
    <circle cx="95" cy="85" r="2"/>
    <circle cx="25" cy="95" r="2"/>
    <circle cx="35" cy="95" r="2"/>
    <circle cx="85" cy="95" r="2"/>
    <circle cx="95" cy="95" r="2"/>
  </g>
  
  <!-- Inner dark blue circle -->
  <circle cx="60" cy="60" r="45" fill="#1E3A8A" stroke="#1E40AF" stroke-width="2"/>
  
  <!-- TEC HOUSE text -->
  <text x="60" y="50" text-anchor="middle" fill="#FCD34D" font-family="Arial Black, Arial, sans-serif" font-size="16" font-weight="900">TEC</text>
  
  <!-- Horizontal line separator -->
  <line x1="45" y1="55" x2="75" y2="55" stroke="#000000" stroke-width="1"/>
  
  <text x="60" y="70" text-anchor="middle" fill="#FCD34D" font-family="Arial Black, Arial, sans-serif" font-size="12" font-weight="900">HOUSE</text>
  
  <!-- SINCE 2013 text along the curve -->
  <text x="60" y="110" text-anchor="middle" fill="#000000" font-family="Arial, sans-serif" font-size="8" font-weight="400">
    <tspan>SINCE</tspan>
    <tspan x="60" dy="10" font-size="10" font-weight="700">2013</tspan>
  </text>
</svg>
